<?xml version="1.0" encoding="UTF-8"?>
<svg id="Layer_1" xmlns="http://www.w3.org/2000/svg" version="1.1" viewBox="0 0 1722 547.2">
  <!-- Generator: Adobe Illustrator 29.3.1, SVG Export Plug-In . SVG Version: 2.1.0 Build 151)  -->
  <defs>
    <style>
      .st0, .st1, .st2, .st3, .st4 {
        font-family: Helvetica-Bold, Helvetica;
        font-weight: 700;
      }

      .st0, .st3 {
        font-size: 15.1px;
      }

      .st1, .st5, .st6, .st3, .st4 {
        isolation: isolate;
      }

      .st1, .st5, .st2 {
        font-size: 25.1px;
      }

      .st7 {
        stroke-miterlimit: 4;
        stroke-width: 7.1px;
      }

      .st7, .st8 {
        fill: none;
      }

      .st7, .st8, .st9, .st10, .st11, .st12, .st13 {
        stroke: #000;
      }

      .st8, .st10 {
        stroke-miterlimit: 7.1;
        stroke-width: 7.1px;
      }

      .st5 {
        display: none;
        font-family: MyriadPro-Regular, 'Myriad Pro';
      }

      .st4 {
        font-size: 18.1px;
      }

      .st9 {
        fill: #ffba1a;
      }

      .st9, .st11, .st12, .st13 {
        stroke-miterlimit: 10;
      }

      .st10 {
        fill: #fff;
      }

      .st11 {
        fill: #00c90d;
      }

      .st12 {
        fill: #ff491a;
      }

      .st13 {
        fill: #00c9d8;
      }
    </style>
  </defs>
  <rect class="st10" x="6.5" y="6.6" width="1708.9" height="534"/>
  <rect class="st13" x="327" y="433.8" width="427.2" height="71.2"/>
  <rect class="st11" x="42.1" y="42.2" width="71.2" height="71.2"/>
  <rect class="st12" x="42.1" y="362.6" width="178" height="71.2"/>
  <rect class="st9" x="185.2" y="291.4" width="69.9" height="71.2"/>
  <rect class="st9" x="258.2" y="291.4" width="66.1" height="71.2"/>
  <rect class="st9" x="328.3" y="291.4" width="68.8" height="71.2"/>
  <rect class="st9" x="220.2" y="220.2" width="69.9" height="71.2"/>
  <g>
    <g>
      <rect class="st8" x="184.6" y="42.2" width="71.2" height="71.2"/>
      <rect class="st8" x="255.8" y="42.2" width="71.2" height="71.2"/>
      <rect class="st8" x="327" y="42.2" width="71.2" height="71.2"/>
      <rect class="st8" x="398.2" y="42.2" width="71.2" height="71.2"/>
      <rect class="st8" x="505" y="42.2" width="71.2" height="71.2"/>
      <rect class="st8" x="647.4" y="42.2" width="71.2" height="71.2"/>
      <rect class="st8" x="718.6" y="42.2" width="71.2" height="71.2"/>
      <rect class="st8" x="825.4" y="42.2" width="71.2" height="71.2"/>
      <rect class="st8" x="967.8" y="42.2" width="71.2" height="71.2"/>
      <rect class="st8" x="1039" y="42.2" width="71.2" height="71.2"/>
      <rect class="st8" x="1145.8" y="42.2" width="71.2" height="71.2"/>
      <rect class="st8" x="1288.2" y="42.2" width="71.2" height="71.2"/>
      <rect class="st8" x="1145.8" y="149" width="71.2" height="71.2"/>
      <rect class="st8" x="1288.2" y="149" width="71.2" height="71.2"/>
      <rect class="st8" x="1145.8" y="220.2" width="71.2" height="71.2"/>
      <rect class="st8" x="1288.2" y="220.2" width="71.2" height="71.2"/>
      <rect class="st8" x="1145.8" y="433.8" width="71.2" height="71.2"/>
      <rect class="st8" x="1288.2" y="433.8" width="71.2" height="71.2"/>
      <rect class="st8" x="1537.5" y="149" width="71.2" height="71.2"/>
      <rect class="st8" x="1608.7" y="149" width="71.2" height="71.2"/>
      <rect class="st8" x="1395.1" y="220.2" width="71.2" height="71.2"/>
      <rect class="st8" x="1537.5" y="220.2" width="71.2" height="71.2"/>
      <rect class="st8" x="1608.7" y="220.2" width="71.2" height="142.4"/>
      <rect class="st8" x="1395.1" y="291.4" width="71.2" height="71.2"/>
      <rect class="st8" x="1537.5" y="291.4" width="71.2" height="71.2"/>
      <rect class="st8" x="1395.1" y="362.6" width="71.2" height="71.2"/>
      <rect class="st8" x="1537.5" y="362.6" width="71.2" height="71.2"/>
      <rect class="st8" x="1395.1" y="433.8" width="142.4" height="71.2"/>
      <rect class="st8" x="1537.5" y="433.8" width="71.2" height="71.2"/>
      <rect class="st8" x="1608.7" y="362.6" width="71.2" height="142.4"/>
      <rect class="st8" x="42.1" y="149" width="71.2" height="71.2"/>
      <rect class="st8" x="113.3" y="149" width="71.2" height="71.2"/>
      <rect class="st8" x="184.6" y="149" width="71.2" height="71.2"/>
      <rect class="st8" x="255.8" y="149" width="71.2" height="71.2"/>
      <rect class="st8" x="327" y="149" width="71.2" height="71.2"/>
      <rect class="st8" x="398.2" y="149" width="71.2" height="71.2"/>
      <rect class="st8" x="469.4" y="149" width="71.2" height="71.2"/>
      <rect class="st8" x="540.6" y="149" width="71.2" height="71.2"/>
      <rect class="st8" x="611.8" y="149" width="71.2" height="71.2"/>
      <rect class="st8" x="683" y="149" width="71.2" height="71.2"/>
      <rect class="st8" x="754.2" y="149" width="71.2" height="71.2"/>
      <rect class="st8" x="825.4" y="149" width="71.2" height="71.2"/>
      <rect class="st8" x="896.6" y="149" width="71.2" height="71.2"/>
      <rect class="st8" x="967.8" y="149" width="71.2" height="71.2"/>
      <rect class="st8" x="1039" y="149" width="71.2" height="71.2"/>
      <rect class="st8" x="42.1" y="220.2" width="106.8" height="71.2"/>
      <rect class="st8" x="149" y="220.2" width="71.2" height="71.2"/>
      <rect class="st8" x="220.2" y="220.2" width="71.2" height="71.2"/>
      <rect class="st8" x="291.4" y="220.2" width="71.2" height="71.2"/>
      <rect class="st8" x="362.6" y="220.2" width="71.2" height="71.2"/>
      <rect class="st8" x="433.8" y="220.2" width="71.2" height="71.2"/>
      <rect class="st8" x="505" y="220.2" width="71.2" height="71.2"/>
      <rect class="st8" x="576.2" y="220.2" width="71.2" height="71.2"/>
      <rect class="st8" x="647.4" y="220.2" width="71.2" height="71.2"/>
      <rect class="st8" x="718.6" y="220.2" width="71.2" height="71.2"/>
      <rect class="st8" x="789.8" y="220.2" width="71.2" height="71.2"/>
      <rect class="st8" x="861" y="220.2" width="71.2" height="71.2"/>
      <rect class="st8" x="932.2" y="220.2" width="71.2" height="71.2"/>
    </g>
    <path class="st7" d="M1003.4,220.2v71.2h-35.6v71.2h142.4v-142.4h-106.8Z"/>
    <g>
      <rect class="st8" x="42.1" y="291.4" width="106.8" height="71.2"/>
      <rect class="st8" x="184.6" y="291.4" width="71.2" height="71.2"/>
      <rect class="st8" x="255.8" y="291.4" width="71.2" height="71.2"/>
      <rect class="st8" x="327" y="291.4" width="71.2" height="71.2"/>
      <rect class="st8" x="398.2" y="291.4" width="71.2" height="71.2"/>
      <rect class="st8" x="469.4" y="291.4" width="71.2" height="71.2"/>
      <rect class="st8" x="540.6" y="291.4" width="71.2" height="71.2"/>
      <rect class="st8" x="611.8" y="291.4" width="71.2" height="71.2"/>
      <rect class="st8" x="683" y="291.4" width="71.2" height="71.2"/>
      <rect class="st8" x="754.2" y="291.4" width="71.2" height="71.2"/>
      <rect class="st8" x="825.4" y="291.4" width="71.2" height="71.2"/>
      <rect class="st8" x="896.6" y="291.4" width="71.2" height="71.2"/>
      <rect class="st8" x="149" y="291.4" width="35.6" height="71.2"/>
      <rect class="st8" x="220.2" y="362.6" width="71.2" height="71.2"/>
      <rect class="st8" x="291.4" y="362.6" width="71.2" height="71.2"/>
      <rect class="st8" x="362.6" y="362.6" width="71.2" height="71.2"/>
      <rect class="st8" x="433.8" y="362.6" width="71.2" height="71.2"/>
      <rect class="st8" x="505" y="362.6" width="71.2" height="71.2"/>
      <rect class="st8" x="576.2" y="362.6" width="71.2" height="71.2"/>
      <rect class="st8" x="647.4" y="362.6" width="71.2" height="71.2"/>
      <rect class="st8" x="718.6" y="362.6" width="71.2" height="71.2"/>
      <rect class="st8" x="789.8" y="362.6" width="71.2" height="71.2"/>
      <rect class="st8" x="861" y="362.6" width="71.2" height="71.2"/>
      <rect class="st8" x="932.2" y="362.6" width="178" height="71.2"/>
      <rect class="st8" x="42.1" y="362.6" width="178" height="71.2"/>
      <rect class="st8" x="42.1" y="433.8" width="71.2" height="71.2"/>
      <rect class="st8" x="113.3" y="433.8" width="106.8" height="71.2"/>
      <rect class="st8" x="220.2" y="433.8" width="106.8" height="71.2"/>
      <rect class="st8" x="327" y="433.8" width="427.2" height="71.2"/>
      <rect class="st8" x="754.2" y="433.8" width="106.8" height="71.2"/>
      <rect class="st8" x="861" y="433.8" width="106.8" height="71.2"/>
      <rect class="st8" x="967.8" y="433.8" width="71.2" height="71.2"/>
      <rect class="st8" x="1039" y="433.8" width="71.2" height="71.2"/>
      <rect class="st8" x="42.1" y="42.2" width="71.2" height="71.2"/>
      <rect class="st8" x="1217" y="42.2" width="71.2" height="71.2"/>
      <rect class="st8" x="1217" y="220.2" width="71.2" height="71.2"/>
      <rect class="st8" x="576.2" y="42.2" width="71.2" height="71.2"/>
      <rect class="st8" x="896.6" y="42.2" width="71.2" height="71.2"/>
      <rect class="st8" x="1217" y="433.8" width="71.2" height="71.2"/>
      <rect class="st8" x="1217" y="362.6" width="71.2" height="71.2"/>
      <rect class="st8" x="1466.3" y="362.6" width="71.2" height="71.2"/>
      <rect class="st8" x="1466.3" y="291.4" width="71.2" height="71.2"/>
      <rect class="st8" x="1466.3" y="220.2" width="71.2" height="71.2"/>
      <rect class="st8" x="1466.3" y="149" width="71.2" height="71.2"/>
      <rect class="st8" x="1395.1" y="149" width="71.2" height="71.2"/>
      <rect class="st8" x="1217" y="149" width="71.2" height="71.2"/>
    </g>
  </g>
  <g>
    <rect class="st8" x="1395.1" y="42.2" width="284.8" height="71.2"/>
    <rect class="st8" x="1445.2" y="70.6" width="28.5" height="14.2"/>
    <rect class="st8" x="1523.2" y="70.6" width="28.5" height="14.2"/>
    <rect class="st8" x="1601.2" y="70.6" width="28.5" height="14.2"/>
  </g>
  <g>
    <g class="st6">
      <text class="st1" transform="translate(70.8 177.5)"><tspan x="0" y="0">~</tspan></text>
      <text class="st2" transform="translate(85.4 177.5)"><tspan x="0" y="0"> </tspan></text>
      <text class="st1" transform="translate(73.9 208.9)"><tspan x="0" y="0">`</tspan></text>
      <text class="st2" transform="translate(82.3 208.9)"><tspan x="0" y="0"> </tspan></text>
      <text class="st1" transform="translate(145.1 177.5)"><tspan x="0" y="0">!</tspan></text>
      <text class="st2" transform="translate(153.5 177.5)"><tspan x="0" y="0"> </tspan></text>
      <text class="st1" transform="translate(142.3 208.9)"><tspan x="0" y="0">1</tspan></text>
      <text class="st2" transform="translate(156.3 208.9)"><tspan x="0" y="0"> </tspan></text>
      <text class="st1" transform="translate(208.3 177.5)"><tspan x="0" y="0">@</tspan></text>
      <text class="st2" transform="translate(232.8 177.5)"><tspan x="0" y="0"> </tspan></text>
      <text class="st1" transform="translate(213.5 208.9)"><tspan x="0" y="0">2</tspan></text>
      <text class="st2" transform="translate(227.5 208.9)"><tspan x="0" y="0"> </tspan></text>
      <text class="st1" transform="translate(284.7 177.5)"><tspan x="0" y="0">#</tspan></text>
      <text class="st2" transform="translate(298.7 177.5)"><tspan x="0" y="0"> </tspan></text>
      <text class="st1" transform="translate(284.7 208.9)"><tspan x="0" y="0">3</tspan></text>
      <text class="st2" transform="translate(298.7 208.9)"><tspan x="0" y="0"> </tspan></text>
      <text class="st1" transform="translate(355.9 177.5)"><tspan x="0" y="0">$</tspan></text>
      <text class="st2" transform="translate(369.9 177.5)"><tspan x="0" y="0"> </tspan></text>
      <text class="st1" transform="translate(355.9 208.9)"><tspan x="0" y="0">4</tspan></text>
      <text class="st2" transform="translate(369.9 208.9)"><tspan x="0" y="0"> </tspan></text>
      <text class="st1" transform="translate(423 177.5)"><tspan x="0" y="0">%</tspan></text>
      <text class="st2" transform="translate(445.3 177.5)"><tspan x="0" y="0"> </tspan></text>
      <text class="st1" transform="translate(427.2 208.9)"><tspan x="0" y="0">5</tspan></text>
      <text class="st2" transform="translate(441.1 208.9)"><tspan x="0" y="0"> </tspan></text>
      <text class="st1" transform="translate(498 177.5)"><tspan x="0" y="0">^</tspan></text>
      <text class="st2" transform="translate(512.7 177.5)"><tspan x="0" y="0"> </tspan></text>
      <text class="st1" transform="translate(498.4 208.9)"><tspan x="0" y="0">6</tspan></text>
      <text class="st2" transform="translate(512.3 208.9)"><tspan x="0" y="0"> </tspan></text>
      <text class="st1" transform="translate(567.5 177.5)"><tspan x="0" y="0">&amp;</tspan></text>
      <text class="st2" transform="translate(585.6 177.5)"><tspan x="0" y="0"> </tspan></text>
      <text class="st1" transform="translate(569.6 208.9)"><tspan x="0" y="0">7</tspan></text>
      <text class="st2" transform="translate(583.5 208.9)"><tspan x="0" y="0"> </tspan></text>
      <text class="st1" transform="translate(642.9 177.5)"><tspan x="0" y="0">*</tspan></text>
      <text class="st2" transform="translate(652.6 177.5)"><tspan x="0" y="0"> </tspan></text>
      <text class="st1" transform="translate(640.8 208.9)"><tspan x="0" y="0">8</tspan></text>
      <text class="st2" transform="translate(654.7 208.9)"><tspan x="0" y="0"> </tspan></text>
      <text class="st1" transform="translate(714.8 177.5)"><tspan x="0" y="0">(</tspan></text>
      <text class="st2" transform="translate(723.1 177.5)"><tspan x="0" y="0"> </tspan></text>
      <text class="st1" transform="translate(712 208.9)"><tspan x="0" y="0">9</tspan></text>
      <text class="st2" transform="translate(725.9 208.9)"><tspan x="0" y="0"> </tspan></text>
      <text class="st1" transform="translate(786 177.5)"><tspan x="0" y="0">)</tspan></text>
      <text class="st2" transform="translate(794.3 177.5)"><tspan x="0" y="0"> </tspan></text>
      <text class="st1" transform="translate(783.2 208.9)"><tspan x="0" y="0">0</tspan></text>
      <text class="st2" transform="translate(797.1 208.9)"><tspan x="0" y="0"> </tspan></text>
      <text class="st1" transform="translate(854.4 177.5)"><tspan x="0" y="0">_</tspan></text>
      <text class="st2" transform="translate(868.4 177.5)"><tspan x="0" y="0"> </tspan></text>
      <text class="st1" transform="translate(857.2 208.9)"><tspan x="0" y="0">-</tspan></text>
      <text class="st2" transform="translate(865.6 208.9)"><tspan x="0" y="0"> </tspan></text>
      <text class="st1" transform="translate(925.2 177.5)"><tspan x="0" y="0">+</tspan></text>
      <text class="st2" transform="translate(939.9 177.5)"><tspan x="0" y="0"> </tspan></text>
      <text class="st1" transform="translate(925.2 208.9)"><tspan x="0" y="0">=</tspan></text>
      <text class="st2" transform="translate(939.9 208.9)"><tspan x="0" y="0"> </tspan></text>
      <text class="st1" transform="translate(1000.3 177.5)"><tspan x="0" y="0">|</tspan></text>
      <text class="st2" transform="translate(1007.3 177.5)"><tspan x="0" y="0"> </tspan></text>
      <text class="st1" transform="translate(1000.3 208.9)"><tspan x="0" y="0">\</tspan></text>
      <text class="st2" transform="translate(1007.3 208.9)"><tspan x="0" y="0"> </tspan></text>
      <text class="st5" transform="translate(1069.4 193.2)"><tspan x="0" y="0">←</tspan></text>
    </g>
    <g class="st6">
      <text class="st1" transform="translate(70.7 264.4)"><tspan x="0" y="0">Tab</tspan></text>
      <text class="st2" transform="translate(113.5 264.4)"><tspan x="0" y="0"> </tspan></text>
      <text class="st1" transform="translate(171.3 264.4)"><tspan x="0" y="0">Q</tspan></text>
      <text class="st2" transform="translate(190.8 264.4)"><tspan x="0" y="0"> </tspan></text>
      <text class="st1" transform="translate(240.4 264.4)"><tspan x="0" y="0">W</tspan></text>
      <text class="st2" transform="translate(264.1 264.4)"><tspan x="0" y="0"> </tspan></text>
      <text class="st1" transform="translate(315.1 264.4)"><tspan x="0" y="0">E</tspan></text>
      <text class="st2" transform="translate(331.9 264.4)"><tspan x="0" y="0"> </tspan></text>
      <text class="st1" transform="translate(385.6 264.4)"><tspan x="0" y="0">R</tspan></text>
      <text class="st2" transform="translate(403.8 264.4)"><tspan x="0" y="0"> </tspan></text>
      <text class="st1" transform="translate(458.2 264.4)"><tspan x="0" y="0">T</tspan></text>
      <text class="st2" transform="translate(473.6 264.4)"><tspan x="0" y="0"> </tspan></text>
      <text class="st1" transform="translate(528.7 264.4)"><tspan x="0" y="0">Y</tspan></text>
      <text class="st2" transform="translate(545.5 264.4)"><tspan x="0" y="0"> </tspan></text>
      <text class="st1" transform="translate(599.2 264.4)"><tspan x="0" y="0">U</tspan></text>
      <text class="st2" transform="translate(617.4 264.4)"><tspan x="0" y="0"> </tspan></text>
      <text class="st1" transform="translate(676 264.4)"><tspan x="0" y="0">I</tspan></text>
      <text class="st2" transform="translate(683 264.4)"><tspan x="0" y="0"> </tspan></text>
      <text class="st1" transform="translate(740.9 264.4)"><tspan x="0" y="0">O</tspan></text>
      <text class="st2" transform="translate(760.5 264.4)"><tspan x="0" y="0"> </tspan></text>
      <text class="st1" transform="translate(813.5 264.4)"><tspan x="0" y="0">P</tspan></text>
      <text class="st2" transform="translate(830.3 264.4)"><tspan x="0" y="0"> </tspan></text>
      <text class="st1" transform="translate(888.2 248.7)"><tspan x="0" y="0">{</tspan></text>
      <text class="st2" transform="translate(898 248.7)"><tspan x="0" y="0"> </tspan></text>
      <text class="st1" transform="translate(888.9 280.1)"><tspan x="0" y="0">[</tspan></text>
      <text class="st2" transform="translate(897.3 280.1)"><tspan x="0" y="0"> </tspan></text>
      <text class="st1" transform="translate(959.4 248.7)"><tspan x="0" y="0">}</tspan></text>
      <text class="st2" transform="translate(969.2 248.7)"><tspan x="0" y="0"> </tspan></text>
      <text class="st1" transform="translate(963.6 280.1)"><tspan x="0" y="0">]</tspan></text>
    </g>
    <g class="st6">
      <text class="st1" transform="translate(1004.7 335.6)"><tspan x="0" y="0">Enter</tspan></text>
      <text class="st2" transform="translate(1068.9 335.6)"><tspan x="0" y="0"> </tspan></text>
      <text class="st1" transform="translate(62.6 335.6)"><tspan x="0" y="0">Caps</tspan></text>
      <text class="st2" transform="translate(124 335.6)"><tspan x="0" y="0"> </tspan></text>
      <text class="st1" transform="translate(208.8 335.6)"><tspan x="0" y="0">A</tspan></text>
      <text class="st2" transform="translate(227 335.6)"><tspan x="0" y="0"> </tspan></text>
      <text class="st1" transform="translate(280.7 335.6)"><tspan x="0" y="0">S</tspan></text>
      <text class="st2" transform="translate(297.5 335.6)"><tspan x="0" y="0"> </tspan></text>
      <text class="st1" transform="translate(351.2 335.6)"><tspan x="0" y="0">D</tspan></text>
      <text class="st2" transform="translate(369.4 335.6)"><tspan x="0" y="0"> </tspan></text>
      <text class="st1" transform="translate(423.8 335.6)"><tspan x="0" y="0">F</tspan></text>
      <text class="st2" transform="translate(439.2 335.6)"><tspan x="0" y="0"> </tspan></text>
      <text class="st1" transform="translate(493 335.6)"><tspan x="0" y="0">G</tspan></text>
      <text class="st2" transform="translate(512.5 335.6)"><tspan x="0" y="0"> </tspan></text>
      <text class="st1" transform="translate(564.9 335.6)"><tspan x="0" y="0">H</tspan></text>
      <text class="st2" transform="translate(583 335.6)"><tspan x="0" y="0"> </tspan></text>
      <text class="st1" transform="translate(638.2 335.6)"><tspan x="0" y="0">J</tspan></text>
      <text class="st2" transform="translate(652.1 335.6)"><tspan x="0" y="0"> </tspan></text>
      <text class="st1" transform="translate(707.3 335.6)"><tspan x="0" y="0">K</tspan></text>
      <text class="st2" transform="translate(725.4 335.6)"><tspan x="0" y="0"> </tspan></text>
      <text class="st1" transform="translate(779.9 335.6)"><tspan x="0" y="0">L</tspan></text>
      <text class="st2" transform="translate(795.2 335.6)"><tspan x="0" y="0"> </tspan></text>
      <text class="st1" transform="translate(854.6 319.9)"><tspan x="0" y="0">:</tspan></text>
      <text class="st2" transform="translate(862.9 319.9)"><tspan x="0" y="0"> </tspan></text>
      <text class="st1" transform="translate(854.6 351.3)"><tspan x="0" y="0">;</tspan></text>
      <text class="st2" transform="translate(862.9 351.3)"><tspan x="0" y="0"> </tspan></text>
      <text class="st1" transform="translate(924 319.9)"><tspan x="0" y="0">&quot;</tspan></text>
      <text class="st2" transform="translate(935.9 319.9)"><tspan x="0" y="0"> </tspan></text>
      <text class="st1" transform="translate(930.5 351.3)"><tspan x="0" y="0">&apos;</tspan></text>
    </g>
    <g class="st6">
      <text class="st1" transform="translate(244.6 406.8)"><tspan x="0" y="0">Z</tspan></text>
      <text class="st2" transform="translate(259.9 406.8)"><tspan x="0" y="0"> </tspan></text>
      <text class="st1" transform="translate(315.1 406.8)"><tspan x="0" y="0">X</tspan></text>
      <text class="st2" transform="translate(331.9 406.8)"><tspan x="0" y="0"> </tspan></text>
      <text class="st1" transform="translate(385.6 406.8)"><tspan x="0" y="0">C</tspan></text>
      <text class="st2" transform="translate(403.8 406.8)"><tspan x="0" y="0"> </tspan></text>
      <text class="st1" transform="translate(457.5 406.8)"><tspan x="0" y="0">V</tspan></text>
      <text class="st2" transform="translate(474.3 406.8)"><tspan x="0" y="0"> </tspan></text>
      <text class="st1" transform="translate(528 406.8)"><tspan x="0" y="0">B</tspan></text>
      <text class="st2" transform="translate(546.2 406.8)"><tspan x="0" y="0"> </tspan></text>
      <text class="st1" transform="translate(599.2 406.8)"><tspan x="0" y="0">N</tspan></text>
      <text class="st2" transform="translate(617.4 406.8)"><tspan x="0" y="0"> </tspan></text>
      <text class="st1" transform="translate(669 406.8)"><tspan x="0" y="0">M</tspan></text>
      <text class="st2" transform="translate(690 406.8)"><tspan x="0" y="0"> </tspan></text>
      <text class="st1" transform="translate(743.4 391.1)"><tspan x="0" y="0">&lt;</tspan></text>
      <text class="st2" transform="translate(758 391.1)"><tspan x="0" y="0"> </tspan></text>
      <text class="st1" transform="translate(747.2 422.5)"><tspan x="0" y="0">,</tspan></text>
      <text class="st2" transform="translate(754.2 422.5)"><tspan x="0" y="0"> </tspan></text>
      <text class="st1" transform="translate(814.6 391.1)"><tspan x="0" y="0">&gt;</tspan></text>
      <text class="st2" transform="translate(829.2 391.1)"><tspan x="0" y="0"> </tspan></text>
      <text class="st1" transform="translate(818.4 422.5)"><tspan x="0" y="0">.</tspan></text>
      <text class="st2" transform="translate(825.4 422.5)"><tspan x="0" y="0"> </tspan></text>
      <text class="st1" transform="translate(885.4 391.1)"><tspan x="0" y="0">?</tspan></text>
      <text class="st2" transform="translate(900.8 391.1)"><tspan x="0" y="0"> </tspan></text>
      <text class="st1" transform="translate(889.6 422.5)"><tspan x="0" y="0">/</tspan></text>
      <text class="st2" transform="translate(896.6 422.5)"><tspan x="0" y="0"> </tspan></text>
      <text class="st1" transform="translate(989.8 406.8)"><tspan x="0" y="0">Shift</tspan></text>
      <text class="st2" transform="translate(1045.6 406.8)"><tspan x="0" y="0"> </tspan></text>
      <text class="st1" transform="translate(103.2 406.8)"><tspan x="0" y="0">Shift</tspan></text>
    </g>
    <g class="st6">
      <text class="st1" transform="translate(156.3 478)"><tspan x="0" y="0">1</tspan></text>
      <text class="st2" transform="translate(170.2 478)"><tspan x="0" y="0"> </tspan></text>
      <text class="st1" transform="translate(903.9 478)"><tspan x="0" y="0">1</tspan></text>
      <text class="st2" transform="translate(917.9 478)"><tspan x="0" y="0"> </tspan></text>
      <text class="st1" transform="translate(996.4 478)"><tspan x="0" y="0">1</tspan></text>
    </g>
    <g class="st6">
      <text class="st1" transform="translate(52.6 478)"><tspan x="0" y="0">Ctrl</tspan></text>
      <text class="st2" transform="translate(95.9 478)"><tspan x="0" y="0"> </tspan></text>
      <text class="st1" transform="translate(253.3 478)"><tspan x="0" y="0">Alt</tspan></text>
      <text class="st2" transform="translate(286.8 478)"><tspan x="0" y="0"> </tspan></text>
      <text class="st1" transform="translate(787.4 478)"><tspan x="0" y="0">Alt</tspan></text>
      <text class="st2" transform="translate(820.9 478)"><tspan x="0" y="0"> </tspan></text>
      <text class="st1" transform="translate(1053 478)"><tspan x="0" y="0">Ctrl</tspan></text>
    </g>
    <g class="st6">
      <text class="st3" transform="translate(1162.2 64.5)"><tspan x="0" y="0">Print</tspan></text>
      <text class="st0" transform="translate(1196.5 64.5)"><tspan x="0" y="0"> </tspan></text>
      <text class="st3" transform="translate(1162.6 83.3)"><tspan x="0" y="0">Scrn</tspan></text>
      <text class="st0" transform="translate(1196.1 83.3)"><tspan x="0" y="0"> </tspan></text>
      <text class="st3" transform="translate(1155.9 102.2)"><tspan x="0" y="0">SysRq</tspan></text>
      <text class="st0" transform="translate(1202.8 102.2)"><tspan x="0" y="0"> </tspan></text>
      <text class="st3" transform="translate(1299.5 73.9)"><tspan x="0" y="0">Pause</tspan></text>
      <text class="st0" transform="translate(1343.9 73.9)"><tspan x="0" y="0"> </tspan></text>
      <text class="st3" transform="translate(1300.8 92.7)"><tspan x="0" y="0">Break</tspan></text>
      <text class="st0" transform="translate(1342.7 92.7)"><tspan x="0" y="0"> </tspan></text>
      <text class="st3" transform="translate(1229.6 73.9)"><tspan x="0" y="0">Scroll</tspan></text>
      <text class="st0" transform="translate(1271.5 73.9)"><tspan x="0" y="0"> </tspan></text>
      <text class="st3" transform="translate(1235 92.7)"><tspan x="0" y="0">Lock</tspan></text>
    </g>
    <g class="st6">
      <text class="st1" transform="translate(51.9 86.4)"><tspan x="0" y="0">Esc</tspan></text>
      <text class="st2" transform="translate(96.6 86.4)"><tspan x="0" y="0"> </tspan></text>
      <text class="st1" transform="translate(202 86.4)"><tspan x="0" y="0">F1</tspan></text>
      <text class="st2" transform="translate(231.3 86.4)"><tspan x="0" y="0"> </tspan></text>
      <text class="st1" transform="translate(273.2 86.4)"><tspan x="0" y="0">F2</tspan></text>
      <text class="st2" transform="translate(302.5 86.4)"><tspan x="0" y="0"> </tspan></text>
      <text class="st1" transform="translate(344.4 86.4)"><tspan x="0" y="0">F3</tspan></text>
      <text class="st2" transform="translate(373.7 86.4)"><tspan x="0" y="0"> </tspan></text>
      <text class="st1" transform="translate(415.6 86.4)"><tspan x="0" y="0">F4</tspan></text>
      <text class="st2" transform="translate(444.9 86.4)"><tspan x="0" y="0"> </tspan></text>
      <text class="st1" transform="translate(522.4 86.4)"><tspan x="0" y="0">F5</tspan></text>
      <text class="st2" transform="translate(551.7 86.4)"><tspan x="0" y="0"> </tspan></text>
      <text class="st1" transform="translate(593.6 86.4)"><tspan x="0" y="0">F6</tspan></text>
      <text class="st2" transform="translate(623 86.4)"><tspan x="0" y="0"> </tspan></text>
      <text class="st1" transform="translate(664.8 86.4)"><tspan x="0" y="0">F7</tspan></text>
      <text class="st2" transform="translate(694.2 86.4)"><tspan x="0" y="0"> </tspan></text>
      <text class="st1" transform="translate(736.1 86.4)"><tspan x="0" y="0">F8</tspan></text>
      <text class="st2" transform="translate(765.4 86.4)"><tspan x="0" y="0"> </tspan></text>
      <text class="st1" transform="translate(842.9 86.4)"><tspan x="0" y="0">F9</tspan></text>
      <text class="st2" transform="translate(872.2 86.4)"><tspan x="0" y="0"> </tspan></text>
      <text class="st1" transform="translate(907.1 86.4)"><tspan x="0" y="0">F10</tspan></text>
      <text class="st2" transform="translate(950.4 86.4)"><tspan x="0" y="0"> </tspan></text>
      <text class="st1" transform="translate(979 86.4)"><tspan x="0" y="0">F11</tspan></text>
      <text class="st2" transform="translate(1020.9 86.4)"><tspan x="0" y="0"> </tspan></text>
      <text class="st1" transform="translate(1053 86.4)"><tspan x="0" y="0">F12</tspan></text>
    </g>
    <g class="st6">
      <text class="st1" transform="translate(1564.7 193.2)"><tspan x="0" y="0">*</tspan></text>
      <text class="st2" transform="translate(1574.5 193.2)"><tspan x="0" y="0"> </tspan></text>
      <text class="st1" transform="translate(1636.6 193.2)"><tspan x="0" y="0">-</tspan></text>
      <text class="st2" transform="translate(1645 193.2)"><tspan x="0" y="0"> </tspan></text>
      <text class="st1" transform="translate(1420.2 264.4)"><tspan x="0" y="0">7</tspan></text>
      <text class="st2" transform="translate(1434.1 264.4)"><tspan x="0" y="0"> </tspan></text>
      <text class="st1" transform="translate(1562.6 264.4)"><tspan x="0" y="0">9</tspan></text>
      <text class="st2" transform="translate(1576.6 264.4)"><tspan x="0" y="0"> </tspan></text>
      <text class="st1" transform="translate(1633.4 300)"><tspan x="0" y="0">+</tspan></text>
      <text class="st2" transform="translate(1648.1 300)"><tspan x="0" y="0"> </tspan></text>
      <text class="st1" transform="translate(1420.2 335.6)"><tspan x="0" y="0">4</tspan></text>
      <text class="st2" transform="translate(1434.1 335.6)"><tspan x="0" y="0"> </tspan></text>
      <text class="st1" transform="translate(1562.6 335.6)"><tspan x="0" y="0">6</tspan></text>
      <text class="st2" transform="translate(1576.6 335.6)"><tspan x="0" y="0"> </tspan></text>
      <text class="st1" transform="translate(1420.2 406.8)"><tspan x="0" y="0">1</tspan></text>
      <text class="st2" transform="translate(1434.1 406.8)"><tspan x="0" y="0"> </tspan></text>
      <text class="st1" transform="translate(1562.6 406.8)"><tspan x="0" y="0">3</tspan></text>
      <text class="st2" transform="translate(1576.6 406.8)"><tspan x="0" y="0"> </tspan></text>
      <text class="st1" transform="translate(1455.8 478)"><tspan x="0" y="0">0</tspan></text>
      <text class="st2" transform="translate(1469.7 478)"><tspan x="0" y="0"> </tspan></text>
      <text class="st1" transform="translate(1566.1 478)"><tspan x="0" y="0">.</tspan></text>
      <text class="st2" transform="translate(1573.1 478)"><tspan x="0" y="0"> </tspan></text>
      <text class="st1" transform="translate(1491.4 406.8)"><tspan x="0" y="0">2</tspan></text>
      <text class="st2" transform="translate(1505.3 406.8)"><tspan x="0" y="0"> </tspan></text>
      <text class="st1" transform="translate(1491.4 335.6)"><tspan x="0" y="0">5</tspan></text>
      <text class="st2" transform="translate(1505.3 335.6)"><tspan x="0" y="0"> </tspan></text>
      <text class="st1" transform="translate(1491.4 264.4)"><tspan x="0" y="0">8</tspan></text>
      <text class="st2" transform="translate(1505.3 264.4)"><tspan x="0" y="0"> </tspan></text>
      <text class="st1" transform="translate(1498.4 193.2)"><tspan x="0" y="0">/</tspan></text>
    </g>
    <g class="st6">
      <text class="st3" transform="translate(1158.8 190.1)"><tspan x="0" y="0">Insert</tspan></text>
      <text class="st0" transform="translate(1199.9 190.1)"><tspan x="0" y="0"> </tspan></text>
      <text class="st3" transform="translate(1303.7 180.7)"><tspan x="0" y="0">Page</tspan></text>
      <text class="st0" transform="translate(1339.8 180.7)"><tspan x="0" y="0"> </tspan></text>
      <text class="st3" transform="translate(1311.7 199.5)"><tspan x="0" y="0">Up</tspan></text>
      <text class="st0" transform="translate(1331.8 199.5)"><tspan x="0" y="0"> </tspan></text>
      <text class="st3" transform="translate(1156.7 261.3)"><tspan x="0" y="0">Delete</tspan></text>
      <text class="st0" transform="translate(1202 261.3)"><tspan x="0" y="0"> </tspan></text>
      <text class="st3" transform="translate(1303.7 251.9)"><tspan x="0" y="0">Page</tspan></text>
      <text class="st0" transform="translate(1339.8 251.9)"><tspan x="0" y="0"> </tspan></text>
      <text class="st3" transform="translate(1301.2 270.8)"><tspan x="0" y="0">Down</tspan></text>
      <text class="st0" transform="translate(1342.3 270.8)"><tspan x="0" y="0"> </tspan></text>
      <text class="st3" transform="translate(1236.3 261.3)"><tspan x="0" y="0">End</tspan></text>
      <text class="st0" transform="translate(1264.8 261.3)"><tspan x="0" y="0"> </tspan></text>
      <text class="st3" transform="translate(1231.7 190.1)"><tspan x="0" y="0">Home</tspan></text>
    </g>
    <g class="st6">
      <text class="st3" transform="translate(1622.9 439.3)"><tspan x="0" y="0">Enter</tspan></text>
      <text class="st0" transform="translate(1661.4 439.3)"><tspan x="0" y="0"> </tspan></text>
      <text class="st3" transform="translate(1411.8 180.7)"><tspan x="0" y="0">Num</tspan></text>
      <text class="st0" transform="translate(1445.3 180.7)"><tspan x="0" y="0"> </tspan></text>
      <text class="st3" transform="translate(1411 199.5)"><tspan x="0" y="0">Lock</tspan></text>
      <text class="st0" transform="translate(1446.1 199.5)"><tspan x="0" y="0"> </tspan></text>
      <text class="st3" transform="translate(1407.6 280.2)"><tspan x="0" y="0">Home</tspan></text>
      <text class="st0" transform="translate(1449.5 280.2)"><tspan x="0" y="0"> </tspan></text>
      <text class="st3" transform="translate(1549.2 280.2)"><tspan x="0" y="0">Pg Up</tspan></text>
      <text class="st0" transform="translate(1592.7 280.2)"><tspan x="0" y="0"> </tspan></text>
      <text class="st3" transform="translate(1414.3 422.6)"><tspan x="0" y="0">End</tspan></text>
      <text class="st0" transform="translate(1442.8 422.6)"><tspan x="0" y="0"> </tspan></text>
      <text class="st3" transform="translate(1549.2 422.6)"><tspan x="0" y="0">Pg Dn</tspan></text>
      <text class="st0" transform="translate(1592.7 422.6)"><tspan x="0" y="0"> </tspan></text>
      <text class="st3" transform="translate(1453.3 493.8)"><tspan x="0" y="0">Ins</tspan></text>
      <text class="st0" transform="translate(1475 493.8)"><tspan x="0" y="0"> </tspan></text>
      <text class="st3" transform="translate(1561.3 493.8)"><tspan x="0" y="0">Del</tspan></text>
    </g>
    <g>
      <path d="M1050.7,178.7c.8-.2,2.1-.3,3.5-.3s2.8.2,3.7.8c.8.5,1.3,1.3,1.3,2.4s-.7,2.2-2.2,2.7h0c1.4.4,2.6,1.4,2.6,3.2s-.5,2-1.2,2.6c-.9.8-2.4,1.2-4.8,1.2s-2.3,0-2.9-.2v-12.4ZM1053,183.7h1.2c1.6,0,2.6-.8,2.6-1.8s-.9-1.7-2.4-1.7-1.1,0-1.4.1v3.5ZM1053,189.5c.3,0,.7,0,1.3,0,1.5,0,2.9-.6,2.9-2.1s-1.3-2.1-3-2.1h-1.2v4.1Z"/>
      <path d="M1061.7,178.5h2.3v5.8h0c.3-.5.6-.9,1-1.4l3.4-4.5h2.9l-4.5,5.4,4.8,7.3h-2.8l-3.7-5.8-1.2,1.4v4.4h-2.3v-12.6Z"/>
      <path d="M1072.9,188.7c.8.4,1.9.8,3.1.8s2.4-.7,2.4-1.7-.7-1.5-2.3-2.1c-2.1-.7-3.5-1.9-3.5-3.7s1.8-3.6,4.6-3.6,2.4.3,3.1.6l-.6,1.9c-.5-.2-1.4-.6-2.6-.6s-2.1.8-2.1,1.5.8,1.4,2.5,2.1c2.3.8,3.3,1.9,3.3,3.8s-1.6,3.8-4.9,3.8-2.8-.4-3.5-.8l.5-1.9Z"/>
      <path d="M1082.9,178.7c.9-.1,2-.3,3.6-.3s3,.4,3.8,1c.8.6,1.3,1.6,1.3,2.8s-.4,2.2-1.1,2.9c-1,.9-2.4,1.4-4.1,1.4s-.8,0-1.2,0v4.8h-2.3v-12.5ZM1085.3,184.6c.3,0,.7.1,1.2.1,1.8,0,2.8-.9,2.8-2.3s-1-2.1-2.6-2.1-1.1,0-1.4.1v4.3Z"/>
      <path d="M1103,190.8c-.6.3-1.8.6-3.4.6-4.1,0-6.6-2.5-6.6-6.4s3-6.7,6.9-6.7,2.7.3,3.1.6l-.5,1.8c-.6-.3-1.5-.5-2.5-.5-2.6,0-4.5,1.6-4.5,4.7s1.7,4.6,4.5,4.6,2-.2,2.6-.5l.4,1.8Z"/>
    </g>
  </g>
  <g>
    <path d="M514.4,466.9c.8.4,1.9.8,3.1.8s2.4-.7,2.4-1.7-.7-1.5-2.3-2.1c-2.1-.7-3.5-1.9-3.5-3.7s1.8-3.6,4.6-3.6,2.4.3,3.1.6l-.6,1.9c-.5-.2-1.4-.6-2.6-.6s-2.1.8-2.1,1.5.8,1.4,2.5,2.1c2.3.8,3.3,1.9,3.3,3.8s-1.6,3.8-4.9,3.8-2.8-.4-3.5-.8l.5-1.9Z"/>
    <path d="M524.4,456.9c.9-.1,2-.3,3.6-.3s3,.4,3.8,1c.8.6,1.3,1.6,1.3,2.8s-.4,2.2-1.1,2.9c-1,.9-2.4,1.4-4.1,1.4s-.8,0-1.2,0v4.8h-2.3v-12.5ZM526.8,462.8c.3,0,.7.1,1.2.1,1.8,0,2.8-.9,2.8-2.3s-1-2.1-2.6-2.1-1.1,0-1.4.1v4.3Z"/>
    <path d="M536.4,465.8l-1.1,3.6h-2.4l4.2-12.7h3l4.2,12.7h-2.5l-1.2-3.6h-4.1ZM540.2,464.1l-1-3.1c-.2-.8-.5-1.6-.7-2.4h0c-.2.7-.4,1.6-.6,2.4l-1,3.1h3.3Z"/>
    <path d="M555,469c-.6.3-1.8.6-3.4.6-4.1,0-6.6-2.5-6.6-6.4s3-6.7,6.9-6.7,2.7.3,3.1.6l-.5,1.8c-.6-.3-1.5-.5-2.5-.5-2.6,0-4.5,1.6-4.5,4.7s1.7,4.6,4.5,4.6,2-.2,2.6-.5l.4,1.8Z"/>
    <path d="M564.2,463.8h-4.9v3.7h5.5v1.9h-7.8v-12.7h7.5v1.9h-5.2v3.3h4.9v1.9Z"/>
  </g>
  <g>
    <path d="M523.7,487.4c.3.1.6.2,1,.2.9,0,1.5-.5,1.8-2.1l1.1-5.7h.5l-1.1,5.7c-.3,1.8-1.1,2.5-2.4,2.5s-1-.1-1.1-.2v-.5Z"/>
    <path d="M530.6,479.9l-.9,4.9c0,.4-.1.7-.1,1,0,1.3.7,1.8,1.7,1.8s2.2-.8,2.5-2.8l.9-4.9h.5l-1,5c-.5,2.4-1.7,3.2-3.2,3.2s-2.2-.6-2.2-2.3,0-.7.1-1.1l.9-4.8h.5Z"/>
    <path d="M542.5,487.9l.6-5c0-.7.3-1.9.4-2.5h0c-.3.7-.7,1.5-1.2,2.3l-2.9,5.1h-.4l-.8-5c-.2-1-.2-1.8-.3-2.5h0c-.1.5-.4,1.8-.6,2.5l-1.3,5h-.5l2.1-8.1h.6l.9,5.6c.1.6.2,1.3.2,1.7h0c.2-.4.5-1,.8-1.6l3.1-5.6h.7l-1,8.1h-.5Z"/>
    <path d="M546.3,480c.4,0,1-.2,1.5-.2.8,0,1.5.2,1.9.7.3.3.4.8.4,1.3,0,.8-.4,1.6-.9,2-.6.5-1.5.8-2.4.8s-.6,0-.9,0l-.7,3.4h-.5l1.5-8ZM546,484c.3,0,.6,0,.9,0,1.6,0,2.6-1,2.6-2.3s-.8-1.5-1.8-1.5-.8,0-1,.1l-.7,3.6Z"/>
  </g>
  <g>
    <path d="M233.6,279.8l.5-4.4c0-.6.2-1.7.3-2.2h0c-.3.6-.6,1.4-1,2.1l-2.4,4.5h-.3l-.7-4.4c-.1-.8-.2-1.6-.3-2.2h0c-.1.5-.3,1.6-.5,2.2l-1.1,4.4h-.5l1.8-7.1h.5l.7,4.9c0,.6.2,1.1.2,1.5h0c.2-.4.4-.9.7-1.5l2.6-5h.6l-.8,7.1h-.4Z"/>
    <path d="M239.9,276.7c0,1.4-1,3.2-2.6,3.2s-1.8-1-1.8-2.1c0-1.6,1.1-3.2,2.6-3.2s1.8,1.1,1.8,2.1ZM236,277.8c0,1,.5,1.7,1.4,1.7s2-1.4,2-2.8-.3-1.7-1.4-1.7-2.1,1.4-2.1,2.8Z"/>
    <path d="M241.2,274.7l.5,3.3c0,.6.2.9.2,1.2h0c0-.2.2-.5.5-1.1l1.8-3.4h.5l-2.7,5.1h-.4l-.9-5.1h.5Z"/>
    <path d="M247.9,279.5c-.2.2-.8.4-1.5.4-1.2,0-1.7-1-1.7-2,0-1.5,1.1-3.3,2.5-3.3s1.3.6,1.3,1.2c0,1.4-1.6,1.6-3.3,1.6,0,.3,0,.9,0,1.2.2.6.6.9,1.2.9s1-.2,1.3-.4v.4ZM247.2,275c-.9,0-1.6,1-1.9,2,1.4,0,2.8-.2,2.8-1.2s-.4-.8-.9-.8Z"/>
    <path d="M252.2,272.6h3.1v.4h-2.8l-.5,2.9h2.4v.4h-2.5l-.6,3.5h-.5l1.3-7.1Z"/>
    <path d="M259.3,276.7c0,1.4-1,3.2-2.6,3.2s-1.8-1-1.8-2.1c0-1.6,1.1-3.2,2.6-3.2s1.8,1.1,1.8,2.1ZM255.4,277.8c0,1,.5,1.7,1.4,1.7s2-1.4,2-2.8-.3-1.7-1.4-1.7-2.1,1.4-2.1,2.8Z"/>
    <path d="M260,279.8l.6-3.4c.1-.6.2-1.2.2-1.7h.4c0,.4,0,.7-.2,1.1h0c.3-.7.8-1.3,1.5-1.3s.2,0,.2,0v.5c-.1,0-.2,0-.3,0-.6,0-1.4,1-1.6,2.3l-.4,2.5h-.5Z"/>
    <path d="M263.9,274.7l.3,3.3c0,.7,0,.9,0,1.2h0c0-.2.2-.6.5-1.1l1.8-3.4h.4l.4,3.4c0,.5.1.9.1,1.1h0c.1-.3.2-.6.4-1.1l1.6-3.5h.5l-2.4,5.1h-.4l-.4-3.4c0-.4,0-.8,0-1.2h0c-.2.3-.3.7-.6,1.2l-1.8,3.4h-.4l-.4-5.1h.4Z"/>
    <path d="M273.3,279.8c0-.3,0-.9.1-1.5h0c-.6,1.2-1.3,1.6-2,1.6s-1.4-.7-1.4-1.6c0-1.8,1.3-3.7,3.3-3.7s.8,0,1.1.2l-.5,2.6c-.2,1-.2,1.9-.2,2.4h-.4ZM273.9,275.1c-.1,0-.3,0-.7,0-1.5,0-2.7,1.5-2.7,3.2,0,.6.2,1.3,1,1.3s1.9-1.2,2.1-2.6l.3-1.8Z"/>
    <path d="M275.1,279.8l.6-3.4c.1-.6.2-1.2.2-1.7h.4c0,.4,0,.7-.2,1.1h0c.3-.7.8-1.3,1.5-1.3s.2,0,.2,0v.5c-.1,0-.2,0-.3,0-.6,0-1.4,1-1.6,2.3l-.4,2.5h-.5Z"/>
    <path d="M282.8,272.2l-1.1,6.1c0,.5-.2,1-.2,1.4h-.4l.2-1.1h0c-.5.8-1.1,1.2-1.9,1.2s-1.4-.9-1.4-1.8c0-1.8,1.3-3.5,3-3.5s.8,0,1,.2l.4-2.5h.5ZM281.8,275.2c-.2-.1-.5-.2-.9-.2-1.4,0-2.5,1.5-2.5,3.1s.2,1.4,1.1,1.4,1.7-1,2-2.2l.4-2Z"/>
  </g>
  <g>
    <path d="M196.8,353.7c.5.3,1.1.5,1.7.5,1.1,0,2.2-.7,2.2-1.9s-.4-1.3-1.3-1.8c-1.2-.6-1.7-1.3-1.7-2.1,0-1.4,1.2-2.3,2.6-2.3s1.4.2,1.6.5l-.3.4c-.3-.2-.8-.4-1.4-.4-1.2,0-2,.8-2,1.7,0,.8.4,1.2,1.4,1.8,1.1.6,1.6,1.2,1.6,2.3s-.9,2.4-2.9,2.4-1.5-.3-1.9-.6l.2-.5Z"/>
    <path d="M204.8,347l-.3,1.6h1.6v.5h-1.7l-.7,3.5c0,.4-.1.7-.1,1.1s.2.6.6.6.4,0,.5,0v.4c-.1,0-.4,0-.6,0-.8,0-1.1-.6-1.1-1.1s0-.7.1-1.1l.7-3.4h-.9v-.5h1l.3-1.4.6-.2Z"/>
    <path d="M206.3,354.6l.8-4c.1-.7.2-1.4.3-1.9h.5c0,.4-.1.8-.2,1.3h0c.4-.8,1-1.5,1.9-1.5s.2,0,.3,0v.6c-.2,0-.3,0-.4,0-.8,0-1.8,1.1-2.1,2.6l-.6,2.9h-.6Z"/>
    <path d="M213.9,354.6c0-.4,0-1,.2-1.8h0c-.7,1.4-1.6,1.9-2.6,1.9s-1.7-.8-1.7-1.9c0-2.1,1.7-4.3,4.2-4.3s1.1,0,1.4.2l-.6,3.1c-.2,1.2-.3,2.2-.3,2.8h-.6ZM214.7,349c-.2,0-.4-.1-.9-.1-1.9,0-3.5,1.7-3.5,3.8,0,.7.2,1.5,1.3,1.5s2.4-1.4,2.7-3.1l.4-2.1Z"/>
    <path d="M216.4,354.6l1.1-5.5h-.8v-.5h.9v-.3c.2-.9.5-1.7,1.1-2.2.3-.3.8-.5,1.3-.5s.7,0,.8.2l-.2.5c-.2,0-.4-.1-.6-.1-1,0-1.5,1-1.7,2.2v.3c0,0,1.4,0,1.4,0v.5h-1.6l-1.1,5.5h-.6Z"/>
    <path d="M223.6,354.2c-.3.2-1,.5-1.9.5-1.6,0-2.2-1.2-2.2-2.3,0-1.8,1.4-3.9,3.3-3.9s1.6.7,1.6,1.4c0,1.6-2,1.9-4.2,1.9,0,.3,0,1.1,0,1.5.3.7.8,1,1.5,1s1.3-.3,1.6-.4l.2.4ZM222.7,348.9c-1.1,0-2.1,1.1-2.4,2.3,1.8,0,3.5-.2,3.5-1.4s-.5-.9-1.1-.9Z"/>
    <path d="M229,346.2h.6l-1.6,7.9h3.6v.5h-4.3l1.7-8.4Z"/>
    <path d="M236.3,354.2c-.3.2-1,.5-1.9.5-1.6,0-2.2-1.2-2.2-2.3,0-1.8,1.4-3.9,3.3-3.9s1.6.7,1.6,1.4c0,1.6-2,1.9-4.2,1.9,0,.3,0,1.1,0,1.5.3.7.8,1,1.5,1s1.3-.3,1.6-.4l.2.4ZM235.4,348.9c-1.1,0-2.1,1.1-2.4,2.3,1.8,0,3.5-.2,3.5-1.4s-.5-.9-1.1-.9Z"/>
    <path d="M237.9,354.6l1.1-5.5h-.8v-.5h.9v-.3c.2-.9.5-1.7,1.1-2.2.3-.3.8-.5,1.3-.5s.7,0,.8.2l-.2.5c-.2,0-.4-.1-.6-.1-1,0-1.5,1-1.7,2.2v.3c0,0,1.4,0,1.4,0v.5h-1.6l-1.1,5.5h-.6Z"/>
    <path d="M243.4,347l-.3,1.6h1.6v.5h-1.7l-.7,3.5c0,.4-.1.7-.1,1.1s.2.6.6.6.4,0,.5,0v.4c-.1,0-.4,0-.6,0-.8,0-1.1-.6-1.1-1.1s0-.7.1-1.1l.7-3.4h-.9v-.5h1l.3-1.4.6-.2Z"/>
  </g>
  <g>
    <path d="M334.1,352.7c.5.3,1.1.5,1.7.5,1.1,0,2.2-.7,2.2-1.9s-.4-1.3-1.3-1.8c-1.2-.6-1.7-1.3-1.7-2.1,0-1.4,1.2-2.3,2.6-2.3s1.4.2,1.6.5l-.3.4c-.3-.2-.8-.4-1.4-.4-1.2,0-2,.8-2,1.7,0,.8.4,1.2,1.4,1.8,1.1.6,1.6,1.2,1.6,2.3s-.9,2.4-2.9,2.4-1.5-.3-1.9-.6l.2-.5Z"/>
    <path d="M342.1,346.1l-.3,1.6h1.6v.5h-1.7l-.7,3.5c0,.4-.1.7-.1,1.1s.2.6.6.6.4,0,.5,0v.4c-.1,0-.4,0-.6,0-.8,0-1.1-.6-1.1-1.1s0-.7.1-1.1l.7-3.4h-.9v-.5h1l.3-1.4.6-.2Z"/>
    <path d="M343.6,353.6l.8-4c.1-.7.2-1.4.3-1.9h.5c0,.4-.1.8-.2,1.3h0c.4-.8,1-1.5,1.9-1.5s.2,0,.3,0v.6c-.2,0-.3,0-.4,0-.8,0-1.8,1.1-2.1,2.6l-.6,2.9h-.6Z"/>
    <path d="M351.2,353.6c0-.4,0-1,.2-1.8h0c-.7,1.4-1.6,1.9-2.6,1.9s-1.7-.8-1.7-1.9c0-2.1,1.7-4.3,4.2-4.3s1.1,0,1.4.2l-.6,3.1c-.2,1.2-.3,2.2-.3,2.8h-.6ZM352,348.1c-.2,0-.4-.1-.9-.1-1.9,0-3.5,1.7-3.5,3.8,0,.7.2,1.5,1.3,1.5s2.4-1.4,2.7-3.1l.4-2.1Z"/>
    <path d="M353.7,353.6l1.1-5.5h-.8v-.5h.9v-.3c.2-.9.5-1.7,1.1-2.2.3-.3.8-.5,1.3-.5s.7,0,.8.2l-.2.5c-.2,0-.4-.1-.6-.1-1,0-1.5,1-1.7,2.2v.3c0,0,1.4,0,1.4,0v.5h-1.6l-1.1,5.5h-.6Z"/>
    <path d="M360.9,353.3c-.3.2-1,.5-1.9.5-1.6,0-2.2-1.2-2.2-2.3,0-1.8,1.4-3.9,3.3-3.9s1.6.7,1.6,1.4c0,1.6-2,1.9-4.2,1.9,0,.3,0,1.1,0,1.5.3.7.8,1,1.5,1s1.3-.3,1.6-.4l.2.4ZM360,348c-1.1,0-2.1,1.1-2.4,2.3,1.8,0,3.5-.2,3.5-1.4s-.5-.9-1.1-.9Z"/>
    <path d="M366.3,345.3c.5-.1,1.1-.2,1.6-.2.9,0,1.6.2,2,.7.3.3.4.8.4,1.2,0,1.2-1,2.2-2.1,2.5h0c.7.2,1,.9,1,1.8,0,1.3.1,1.9.2,2.3h-.6c0-.1-.1-1.1-.2-2,0-1.2-.6-1.8-1.5-1.8h-1.2l-.8,3.9h-.6l1.6-8.3ZM366.1,349.3h1.1c1.6,0,2.5-1,2.5-2.1s-.8-1.5-1.9-1.5-.8,0-1,.1l-.7,3.5Z"/>
    <path d="M371.1,353.6l1.2-6h.6l-1.2,6h-.6ZM372.5,345.9c0-.3.2-.5.5-.5s.5.2.5.5c0,.3-.2.5-.5.5s-.5-.2-.4-.5Z"/>
    <path d="M373.6,355.3c.4.3.9.4,1.7.4,1.1,0,2-.6,2.5-2.5l.3-1.1h0c-.6,1-1.5,1.5-2.4,1.5s-1.8-1-1.8-2c0-2.1,1.6-4.1,3.8-4.1s1.4.2,1.8.4l-1,4.9c-.3,1.4-.6,2.2-1.2,2.7-.6.5-1.4.7-2,.7s-1.4-.2-1.8-.4l.2-.5ZM378.7,348.3c-.2-.1-.7-.3-1.3-.3-1.8,0-3.1,1.8-3.1,3.5,0,.7.2,1.7,1.4,1.7s2.3-1.4,2.5-2.7l.4-2.2Z"/>
    <path d="M380.3,353.6l1.8-8.8h.6l-.8,4.1h0c.5-.8,1.4-1.4,2.4-1.4s1.5.3,1.5,1.6,0,.7,0,1l-.7,3.5h-.6l.7-3.6c0-.2,0-.5,0-.9,0-.6-.3-1.2-1.2-1.2s-2.2,1-2.5,2.5l-.6,3.2h-.6Z"/>
    <path d="M389.3,346.1l-.3,1.6h1.6v.5h-1.7l-.7,3.5c0,.4-.1.7-.1,1.1s.2.6.6.6.4,0,.5,0v.4c-.1,0-.4,0-.6,0-.8,0-1.1-.6-1.1-1.1s0-.7.1-1.1l.7-3.4h-.9v-.5h1l.3-1.4.6-.2Z"/>
  </g>
  <g>
    <path d="M267.8,355.1l.5-4.4c0-.6.2-1.7.3-2.2h0c-.2.6-.6,1.4-.9,2.1l-2.2,4.5h-.3l-.6-4.4c-.1-.8-.2-1.6-.2-2.2h0c-.1.5-.3,1.6-.4,2.2l-1,4.4h-.4l1.6-7.1h.5l.7,4.9c0,.6.2,1.1.2,1.5h0c.2-.4.4-.9.6-1.5l2.4-5h.5l-.7,7.1h-.4Z"/>
    <path d="M273.4,352c0,1.4-.9,3.2-2.3,3.2s-1.6-1-1.6-2.1c0-1.6,1-3.2,2.3-3.2s1.6,1.1,1.6,2.1ZM269.9,353.1c0,1,.5,1.7,1.2,1.7s1.8-1.4,1.8-2.8-.3-1.7-1.2-1.7-1.9,1.4-1.9,2.8Z"/>
    <path d="M274.6,350l.5,3.3c0,.6.1.9.2,1.2h0c0-.2.2-.5.5-1.1l1.6-3.4h.4l-2.4,5.1h-.4l-.8-5.1h.4Z"/>
    <path d="M280.6,354.8c-.2.2-.7.4-1.3.4-1.1,0-1.5-1-1.5-2,0-1.5,1-3.3,2.3-3.3s1.1.6,1.1,1.2c0,1.4-1.4,1.6-3,1.6,0,.3,0,.9,0,1.2.2.6.6.9,1.1.9s.9-.2,1.1-.4v.4ZM280,350.3c-.8,0-1.4,1-1.7,2,1.3,0,2.5-.2,2.5-1.2s-.3-.8-.8-.8Z"/>
    <path d="M284.4,348c.3,0,.7-.1,1.1-.1.6,0,1.1.2,1.4.6.2.3.3.6.3,1,0,.9-.7,1.6-1.4,1.8h0c.5.2,1,.7,1,1.6,0,.7-.3,1.3-.7,1.6-.5.4-1.1.6-1.8.6s-.8,0-1.1,0l1.1-7ZM283.8,354.6c.2,0,.5,0,.7,0,1,0,2-.5,2-1.9s-.7-1.4-1.4-1.4h-.7l-.5,3.2ZM284.3,351.1h.6c1,0,1.8-.6,1.8-1.7s-.5-1.1-1.3-1.1-.6,0-.7,0l-.4,2.7Z"/>
    <path d="M290.6,355.1c0-.3,0-.9.1-1.5h0c-.5,1.2-1.1,1.6-1.8,1.6s-1.2-.7-1.2-1.6c0-1.8,1.2-3.7,3-3.7s.7,0,1,.2l-.4,2.6c-.2,1-.2,1.9-.2,2.4h-.4ZM291.1,350.4c-.1,0-.3,0-.6,0-1.3,0-2.4,1.5-2.5,3.2,0,.6.2,1.3.9,1.3s1.7-1.2,1.9-2.6l.3-1.8Z"/>
    <path d="M295.1,354.8c-.2.1-.6.3-1.3.3-1.2,0-1.6-1-1.6-1.9,0-1.7,1.1-3.4,2.6-3.4s.8.2.9.3l-.2.4c-.2-.1-.5-.2-.8-.2-1.3,0-2.1,1.6-2.1,2.9s.4,1.6,1.2,1.6.9-.2,1.1-.3v.4Z"/>
    <path d="M296,355.1l1.2-7.5h.4l-.8,4.9h0c.1-.2.3-.4.4-.5l1.8-1.9h.5l-1.9,2.1,1.4,3h-.4l-1.2-2.7-.6.6-.3,2.1h-.4Z"/>
    <path d="M300.6,350l.2,3.3c0,.7,0,.9,0,1.2h0c0-.2.2-.6.4-1.1l1.6-3.4h.4l.4,3.4c0,.5,0,.9.1,1.1h0c.1-.3.2-.6.4-1.1l1.5-3.5h.4l-2.2,5.1h-.4l-.4-3.4c0-.4,0-.8,0-1.2h0c-.2.3-.3.7-.5,1.2l-1.6,3.4h-.4l-.4-5.1h.4Z"/>
    <path d="M309,355.1c0-.3,0-.9.1-1.5h0c-.5,1.2-1.1,1.6-1.8,1.6s-1.2-.7-1.2-1.6c0-1.8,1.2-3.7,3-3.7s.7,0,1,.2l-.4,2.6c-.2,1-.2,1.9-.2,2.4h-.4ZM309.6,350.4c-.1,0-.3,0-.6,0-1.3,0-2.4,1.5-2.5,3.2,0,.6.2,1.3.9,1.3s1.7-1.2,1.9-2.6l.3-1.8Z"/>
    <path d="M310.7,355.1l.6-3.4c0-.6.2-1.2.2-1.7h.4c0,.4,0,.7-.1,1.1h0c.3-.7.7-1.3,1.3-1.3s.1,0,.2,0v.5c-.1,0-.2,0-.3,0-.5,0-1.2,1-1.4,2.3l-.4,2.5h-.4Z"/>
    <path d="M317.6,347.5l-1,6.1c0,.5-.1,1-.2,1.4h-.4l.2-1.1h0c-.4.8-1,1.2-1.7,1.2s-1.3-.9-1.3-1.8c0-1.8,1.2-3.5,2.7-3.5s.7,0,.9.2l.4-2.5h.4ZM316.7,350.5c-.2-.1-.5-.2-.8-.2-1.2,0-2.2,1.5-2.2,3.1s.2,1.4,1,1.4,1.6-1,1.8-2.2l.3-2Z"/>
    <path d="M317.7,354.5c.2.1.5.3.8.3.6,0,1-.5,1-1.1s-.2-.8-.6-1.1c-.5-.3-.7-.8-.7-1.3,0-.8.6-1.5,1.4-1.5s.6.1.8.2l-.2.4c-.1-.1-.4-.2-.7-.2-.5,0-.9.4-.9,1s.2.7.6,1c.5.3.7.8.7,1.3,0,1-.7,1.6-1.5,1.6s-.8-.2-.9-.3l.2-.4Z"/>
  </g>
  <g>
    <path d="M57.1,98.2c0,1-.3,2.3-.9,3-.4.5-1,.8-1.6.8-1.3,0-1.8-1.2-1.8-2.5s.4-2.3,1-3.1c.4-.5,1-.8,1.6-.8,1.4,0,1.8,1.3,1.8,2.5ZM53.9,96.8c-.5.7-.8,1.8-.8,2.8s.4,2.2,1.5,2.2,1-.3,1.3-.7c.5-.6.8-1.8.8-2.8s-.2-2.2-1.5-2.2-1,.3-1.3.7Z"/>
    <path d="M57.2,103.8l.7-4.8c0-.5.1-1,.2-1.5h.3v.9c-.1,0-.1,0-.1,0,.3-.6.8-1,1.4-1,.8,0,1.1.8,1.1,1.5,0,1.6-.9,3.1-2.1,3.1s-.7-.1-.8-.2h0l-.3,1.9h-.3ZM57.8,101.5c.2.2.5.3.8.3.9,0,1.7-1.4,1.7-2.7s-.2-1.2-.8-1.2-1.3.8-1.5,2.2l-.2,1.4Z"/>
    <path d="M63.5,101.8c-.2.1-.6.3-1.1.3-.9,0-1.2-.9-1.2-1.7,0-1.3.8-2.9,1.9-2.9s.9.5.9,1c0,1.2-1.2,1.4-2.4,1.4,0,.2,0,.8,0,1.1.1.5.5.8.9.8s.8-.2.9-.3v.3ZM63,97.9c-.6,0-1.2.8-1.4,1.7,1.1,0,2-.2,2-1s-.3-.7-.6-.7Z"/>
    <path d="M64.4,102l.5-3.2c0-.4.1-.8.2-1.2h.3v1c-.1,0,0,0,0,0,.3-.6.8-1.1,1.4-1.1s.9.2.9,1.2,0,.4,0,.7l-.4,2.6h-.3l.4-2.6c0-.2,0-.4,0-.6,0-.5-.2-.9-.7-.9s-1.3.7-1.4,1.9l-.3,2.3h-.3Z"/>
    <path d="M68.8,102.4l3.2-6.7h.4l-3.2,6.7h-.3Z"/>
    <path d="M76.6,101.8c-.3.2-.7.3-1.3.3-1.2,0-1.9-1-1.9-2.5s.3-2.2.9-2.9c.5-.6,1.2-.9,1.9-.9s1,.2,1.1.3v.3c-.4-.2-.7-.3-1.2-.3s-1.2.3-1.6.8c-.5.6-.8,1.6-.8,2.6s.4,2.3,1.6,2.3.8-.1,1.1-.3v.3Z"/>
    <path d="M77.3,102l1-6.5h.3l-1,6.5h-.3Z"/>
    <path d="M82,99.3c0,1.2-.7,2.8-1.9,2.8s-1.3-.9-1.3-1.8c0-1.4.8-2.8,1.9-2.8s1.3,1,1.3,1.8ZM79.1,100.3c0,.8.4,1.5,1,1.5s1.5-1.2,1.5-2.4-.2-1.5-1-1.5-1.5,1.2-1.5,2.4Z"/>
    <path d="M82.4,101.5c.1.1.4.3.7.3.5,0,.8-.4.8-.9s-.1-.7-.5-1c-.4-.3-.6-.7-.6-1.1,0-.7.5-1.3,1.1-1.3s.5.1.6.2v.4c-.2,0-.4-.2-.7-.2-.4,0-.7.4-.7.8s.2.6.5.9c.4.3.6.7.6,1.1,0,.9-.6,1.4-1.2,1.4s-.6-.1-.8-.3v-.3Z"/>
    <path d="M87.4,101.8c-.2.1-.6.3-1.1.3-.9,0-1.2-.9-1.2-1.7,0-1.3.8-2.9,1.9-2.9s.9.5.9,1c0,1.2-1.2,1.4-2.4,1.4,0,.2,0,.8,0,1.1.1.5.5.8.9.8s.8-.2.9-.3v.3ZM86.8,97.9c-.6,0-1.2.8-1.4,1.7,1.1,0,2-.2,2-1s-.3-.7-.6-.7Z"/>
    <path d="M93.7,102l.4-3.8c0-.5.2-1.5.2-1.9h0c-.2.5-.5,1.2-.7,1.8l-1.8,3.9h-.2l-.5-3.8c0-.7-.2-1.4-.2-1.9h0c0,.4-.2,1.4-.4,1.9l-.8,3.8h-.3l1.3-6.2h.4l.5,4.3c0,.5.1,1,.1,1.3h0c.1-.3.3-.8.5-1.3l1.9-4.3h.4l-.6,6.2h-.3Z"/>
    <path d="M97.4,101.8c-.2.1-.6.3-1.1.3-.9,0-1.2-.9-1.2-1.7,0-1.3.8-2.9,1.9-2.9s.9.5.9,1c0,1.2-1.2,1.4-2.4,1.4,0,.2,0,.8,0,1.1.1.5.5.8.9.8s.8-.2.9-.3v.3ZM96.9,97.9c-.6,0-1.2.8-1.4,1.7,1.1,0,2-.2,2-1s-.3-.7-.6-.7Z"/>
    <path d="M98.2,102l.5-3.2c0-.4.1-.8.2-1.2h.3v1c-.1,0,0,0,0,0,.3-.6.8-1.1,1.4-1.1s.9.2.9,1.2,0,.4,0,.7l-.4,2.6h-.3l.4-2.6c0-.2,0-.4,0-.6,0-.5-.2-.9-.7-.9s-1.3.7-1.4,1.9l-.3,2.3h-.3Z"/>
    <path d="M105.3,97.6l-.5,3.2c0,.4-.1.8-.1,1.2h-.3v-.9c.1,0,0,0,0,0-.3.6-.8,1-1.3,1s-1-.2-1-1.3,0-.4,0-.7l.4-2.5h.3l-.4,2.5c0,.3,0,.5,0,.7,0,.6.2.9.7.9s1.2-.7,1.3-1.7l.4-2.4h.3Z"/>
  </g>
  <g>
    <path d="M97.5,411.9c.4,0,.9-.2,1.5-.2.8,0,1.4.2,1.8.6.3.3.4.7.4,1.1,0,1-.9,1.9-1.8,2.1h0c.7.2,1.4.8,1.4,1.8,0,.8-.4,1.5-.9,1.8-.6.5-1.4.7-2.4.7s-1.1,0-1.5,0l1.5-7.9ZM96.6,419.5c.3,0,.6,0,.9,0,1.3,0,2.6-.6,2.6-2.1s-.9-1.6-1.8-1.6h-1l-.7,3.6ZM97.4,415.4h.8c1.3,0,2.3-.7,2.3-1.9s-.7-1.3-1.7-1.3-.7,0-.9,0l-.6,3.1Z"/>
    <path d="M107,416.4c0,1.6-1.1,3.6-3,3.6s-2.1-1.1-2.1-2.4c0-1.8,1.3-3.7,3-3.7s2.1,1.2,2.1,2.4ZM102.3,417.7c0,1.1.6,1.9,1.6,1.9s2.4-1.6,2.4-3.2-.4-1.9-1.6-1.9-2.4,1.6-2.4,3.2Z"/>
    <path d="M113,416.4c0,1.6-1.1,3.6-3,3.6s-2.1-1.1-2.1-2.4c0-1.8,1.3-3.7,3-3.7s2.1,1.2,2.1,2.4ZM108.4,417.7c0,1.1.6,1.9,1.6,1.9s2.4-1.6,2.4-3.2-.4-1.9-1.6-1.9-2.4,1.6-2.4,3.2Z"/>
    <path d="M113.7,419.3c.2.2.7.3,1.1.3.8,0,1.3-.6,1.3-1.2s-.2-.9-.9-1.3c-.7-.4-.9-.9-.9-1.4,0-.9.8-1.6,1.8-1.6s.8.1,1,.3l-.2.5c-.2-.1-.5-.3-.9-.3-.7,0-1.2.5-1.2,1.1s.3.8.8,1.2c.7.4.9.9.9,1.5,0,1.1-.9,1.8-1.9,1.8s-1-.2-1.2-.4l.2-.4Z"/>
    <path d="M120.1,412.7l-.3,1.5h1.5v.4h-1.6l-.6,3.3c0,.4-.1.7-.1,1s.2.6.6.6.3,0,.5,0v.4c-.1,0-.3,0-.6,0-.8,0-1-.5-1-1s0-.7.1-1.1l.6-3.3h-.9v-.4h1l.3-1.4.6-.2Z"/>
    <path d="M125.2,411.8h3.7v.5h-3.3l-.6,3.2h2.9v.5h-3l-.7,3.9h-.5l1.5-8.1Z"/>
    <path d="M133.6,416.4c0,1.6-1.1,3.6-3,3.6s-2.1-1.1-2.1-2.4c0-1.8,1.3-3.7,3-3.7s2.1,1.2,2.1,2.4ZM129,417.7c0,1.1.6,1.9,1.6,1.9s2.4-1.6,2.4-3.2-.4-1.9-1.6-1.9-2.4,1.6-2.4,3.2Z"/>
    <path d="M134.5,419.9l.7-3.9c.1-.7.2-1.3.3-1.9h.5c0,.4-.1.8-.2,1.3h0c.4-.8,1-1.4,1.7-1.4s.2,0,.3,0v.5c-.2,0-.3,0-.4,0-.7,0-1.6,1.1-1.9,2.5l-.5,2.8h-.5Z"/>
    <path d="M139,414.2l.3,3.7c0,.7,0,1,0,1.4h0c.1-.2.3-.7.6-1.2l2.1-3.9h.5l.5,3.8c0,.6.1,1.1.1,1.3h0c.1-.4.3-.7.5-1.2l1.9-3.9h.6l-2.9,5.8h-.5l-.5-3.8c0-.5-.1-.9-.1-1.3h0c-.2.4-.4.8-.7,1.3l-2.1,3.8h-.5l-.5-5.8h.5Z"/>
    <path d="M150.1,419.9c0-.4,0-1,.2-1.7h0c-.7,1.3-1.5,1.8-2.4,1.8s-1.6-.8-1.6-1.8c0-2,1.6-4.2,3.9-4.2s1,0,1.3.2l-.6,3c-.2,1.2-.3,2.1-.3,2.7h-.5ZM150.8,414.6c-.1,0-.4-.1-.8-.1-1.7,0-3.2,1.7-3.2,3.6,0,.7.2,1.5,1.2,1.5s2.2-1.4,2.5-3l.4-2Z"/>
    <path d="M152.3,419.9l.7-3.9c.1-.7.2-1.3.3-1.9h.5c0,.4-.1.8-.2,1.3h0c.4-.8,1-1.4,1.7-1.4s.2,0,.3,0v.5c-.2,0-.3,0-.4,0-.7,0-1.6,1.1-1.9,2.5l-.5,2.8h-.5Z"/>
    <path d="M161.4,411.4l-1.3,6.9c0,.5-.2,1.1-.2,1.6h-.5l.2-1.3h0c-.5.8-1.3,1.4-2.2,1.4s-1.7-1-1.7-2c0-2.1,1.6-4,3.5-4s.9,0,1.2.2l.5-2.9h.5ZM160.2,414.8c-.2-.1-.6-.3-1.1-.3-1.6,0-2.9,1.7-2.9,3.5s.2,1.6,1.3,1.6,2.1-1.1,2.3-2.5l.4-2.3Z"/>
    <path d="M161.6,419.3c.2.2.7.3,1.1.3.8,0,1.3-.6,1.3-1.2s-.2-.9-.9-1.3c-.7-.4-.9-.9-.9-1.4,0-.9.8-1.6,1.8-1.6s.8.1,1,.3l-.2.5c-.2-.1-.5-.3-.9-.3-.7,0-1.2.5-1.2,1.1s.3.8.8,1.2c.7.4.9.9.9,1.5,0,1.1-.9,1.8-1.9,1.8s-1-.2-1.2-.4l.2-.4Z"/>
  </g>
  <text class="st1" transform="translate(1235.4 409.7)"><tspan x="0" y="0">UP</tspan></text>
  <text class="st4" transform="translate(1224.6 476.8) scale(1 1)"><tspan x="0" y="0">DOWN</tspan></text>
  <text class="st4" transform="translate(1159.1 477.2) scale(1 1)"><tspan x="0" y="0">LEFT</tspan></text>
  <text class="st4" transform="translate(1297.4 476.8) scale(1 1)"><tspan x="0" y="0">RIGHT</tspan></text>
</svg>